<?xml version="1.0" encoding="utf-8"?>
<!-- Generator: Adobe Illustrator 26.0.1, SVG Export Plug-In . SVG Version: 6.00 Build 0)  -->
<svg version="1.1" id="Layer_1" xmlns="http://www.w3.org/2000/svg" xmlns:xlink="http://www.w3.org/1999/xlink" x="0px" y="0px"
	 viewBox="0 0 576 288.73" style="enable-background:new 0 0 576 288.73;" xml:space="preserve">
<style type="text/css">
	.st0{fill:#FFFFFF;}
	.st1{fill:#F89B03;}
</style>
<g>
	<g>
		<g>
			<path class="st0" d="M365.24,59.86c3.06,4.44,7.67,7.62,10.48,12.25c-1.29,1.34-2.67,3.05-4.7,3.1
				c-3.55-3.15-6.18-7.26-9.97-10.15c-1.94-1.71-4.46-0.4-6.65-0.1c-3.02,4.1-6.28,8.04-9.03,12.33c-1.27,1.7,0.29,3.72,0.57,5.51
				c1.72,4.47-0.51,9.83-4.78,11.89c-3.5,1.38-7.06-0.35-10.49-1.01c-8.24,4.33-14.45,11.67-19.85,19.1
				c-0.85,1.53-2.77,1.07-4.22,1.36c-0.42-0.71-1.27-2.14-1.7-2.86c5.21-10.1,14.16-17.49,23.08-24.2
				c-5.26-0.78-10.58-1.2-15.83-2.09c0.32-2.06,0.66-4.1,0.98-6.15c5.41,0.68,10.82,1.45,16.28,1.31c2.53-2.48,5.93-3.46,9.13-4.72
				c3.89-4.57,7.53-9.48,10.28-14.83c-5.97-0.3-11.62,1.91-17.14,3.87c-8.17,3.03-15.7,7.55-22.61,12.83
				c-0.2,2.81-0.07,5.77-1.25,8.42c-2.86,5.22-11.17,6.09-15.09,1.66c-3.87-4-2.96-11.21,1.75-14.14c3.03-2.26,6.98-1.26,10.36-0.57
				c10.94-8.32,23.43-14.75,36.91-17.68c1.72-0.66,4.18-0.51,5.08-2.42c1.51-2.33,2.91-5.16,5.86-5.89
				c4.74-2.04,10.33,1.06,12.13,5.65C365.33,54.81,364.73,57.39,365.24,59.86z M353.08,50.6c-1.7,2.11-3.22,5.13-1.44,7.67
				c1.91,3.09,5.94,1.86,8.56,0.52c0.31-2.14,1.4-4.59-0.31-6.43C358.59,49.86,355.36,50.89,353.08,50.6z M333.5,82.2
				c-2.43,1.96-0.85,5.09-0.19,7.5c2.4,0.7,5.35,2,7.37-0.23c2.92-2.3,1.4-6.42-0.52-8.85C337.89,80.72,335.08,80.08,333.5,82.2z"/>
		</g>
		<g>
			<path class="st0" d="M415.57,67.63c3.79-1.01,8.4-1.77,11.36,1.48c3.43,2.7,2.81,7.31,3.1,11.17c1.42,3.23,4.3,5.58,6.32,8.44
				c7.78,9.58,13.49,20.75,16.88,32.61c0.67,3.61,5.13,3.72,7.11,6.35c2.29,2.21,1.97,5.66,1.63,8.55
				c-1.03,2.41-3.18,4.13-4.98,5.97c-0.94,6.71-0.37,13.56-1.78,20.22c-3.29,20.6-14.37,39.38-29.51,53.53
				c-1.09-1.75-2.4-3.4-3.04-5.38c3.21-4.1,7.13-7.61,10.19-11.84c12.09-15.71,18.01-35.76,17.28-55.51
				c-2.26-1.96-5.25-3.72-5.92-6.87c-0.63-2.11-0.28-4.89-2.54-6.08c-4.65-3.17-9.29-6.4-14.19-9.18c-2.3,0.77-4.43,2.02-6.83,2.52
				c-4.01,0.03-8.14-2.38-9.5-6.27c-0.94-2.78,0.13-5.66,0.84-8.35c-1.64-2.9-3.78-5.51-6.46-7.5c-5.23-3.93-10.39-7.96-15.76-11.7
				c-2.97,3.32-7.92,4.58-11.92,2.39c-3.34-1.73-3.46-6.75-7.15-7.91c-6.45-0.87-12.92,0.47-19.38,0.37
				c-1.5-1.43-1.67-3.66-2.41-5.5c7.62-1.62,15.44-1.62,23.17-1c3.72,0.56,5.8-3.83,9.5-3.64c4.11-0.65,7.42,3.18,11.53,2.19
				c4.67-0.68,9.32-1.51,14.02-1.98c0.34,2.01,0.68,4.02,1.01,6.04c-5.56,1.03-11.24,1.46-16.71,2.95
				c10.53,4.68,18.65,12.96,26.49,21.14c0.17-6.47,0.13-12.95,0.04-19.42c-1.96-1.47-4.23-2.71-5.56-4.84
				c-1.22-2.32-1.11-5.02-1.33-7.55c-12.36-8.68-27.25-12.78-42.11-14.4c0-1.99,0.02-3.97,0.03-5.95
				c15.12,0.82,30.01,5.63,42.8,13.73C412.99,66.91,414.17,68.21,415.57,67.63z M424.43,83.97c-0.17,6.16-0.13,12.32-0.1,18.48
				c-0.27,2.79,2.11,4.64,3.36,6.84c1.56,2.18,1.74,5.33,4.18,6.8c5.31,3.5,10.53,7.15,16.13,10.16
				C444.1,110.42,436.1,95.42,424.43,83.97z M418.38,108.59c-1.23,1.51-3.24,2.77-3.37,4.91c-0.44,2.14,1.25,3.79,2.2,5.51
				c1.94,0.01,3.87-0.01,5.8-0.05c1.47-2.14,3.17-4.97,1.51-7.5C423.42,109.13,420.51,109.2,418.38,108.59z M447.93,130.77
				c0.1,2.6-0.21,6.22,2.84,7.3c4.32,2.56,9.58-3.44,6.58-7.44C455.31,127.09,450.43,128.47,447.93,130.77z"/>
		</g>
	</g>
	<g>
		<g>
			<path class="st1" d="M275.73,81.19c15.37,16.88,25.13,39.15,25.41,62.12c0.01,12.1,2.65,24.45,9.1,34.8
				c1.1,2.29,3.98,1.45,5.99,1.97c5.16,0.58,8.34,6.42,7.05,11.23c-0.61,3.1-3.32,5.03-5.66,6.84c2.44,6.31,4.92,12.62,7.4,18.92
				c0.91,3.03,4.86,2.04,7.03,3.65c3.51,1.73,3.51,5.96,5.08,9.04c2.96,1.54,6.31,1.97,9.53,2.65c11.97,2.3,24.48,2.32,36.3-0.79
				c6.88-1.75,13.35-4.72,19.86-7.46c-7.43-1.93-14.95-3.47-22.4-5.28c0.8-1.94,1.65-3.86,2.66-5.68c-0.66-0.48-1.32-0.94-2-1.39
				c-3.21,2.19-4.04,6.7-7.76,8.29c-3.56,1.82-7.61-0.42-11.28,0.9c-7.26,2.25-14.46,4.74-21.71,7.03
				c-0.57-2.03-1.16-4.05-1.73-6.07c7.06-2.3,14.11-4.59,21.17-6.87c-13.83-1.21-27.34-6.16-38.36-14.66
				c1.46-1.55,2.93-3.09,4.39-4.63c9.95,7.17,21.96,12.37,34.35,12.2c2.71-3.04,6-6.67,10.58-5.61c3.61,0.05,5.6,4.95,9.31,3.63
				c14.18-3.9,26.72-13.18,34.83-25.42c-2.75-3.49-4.17-8.5-1.39-12.41c1.75-3.43,5.81-3.7,8.97-4.98
				c4.39-11.6,2.35-24.22,0.1-36.05c1.82-0.76,3.63-1.52,5.44-2.27c3.66,11.1,4.11,22.96,2.67,34.5c4.05-5.75,8.25-11.4,12.4-17.07
				c1.71,1.22,3.43,2.45,5.13,3.7c-5.44,7.55-10.88,15.1-16.24,22.71c-2,2.71-0.91,6.46-2.65,9.3c-1.36,2.31-4.1,3.31-5.67,5.43
				c-1.62,9.21-2.54,18.54-3.76,27.82c-0.56,3.4,2.94,5.72,3.05,9.05c0.53,4.99-3.67,9.35-8.28,10.47
				c-2.52,0.41-4.66-1.36-6.99-1.97c-21.25,12.22-47.57,14.53-70.99,7.74c-2.81-1.28-5.32,1.04-8.01,1.61
				c-4.97,1.45-10.3-2.73-10.86-7.71c-0.62-3.22,1.27-6.08,1.83-9.12c-1.06-4.54-3.23-8.72-4.8-13.09c-1.88-4.04-2.53-9-6.23-11.91
				c-2.44-1.93-3.09-5.47-5.97-6.91c-5.37-2.73-10.84-5.27-16.22-7.98c0.92-1.87,1.84-3.74,2.77-5.6c5.49,2.66,10.99,5.3,16.45,8.06
				c-4.74-8.15-8.25-17.06-9.71-26.39c-0.53-2.94-0.62-6.29-2.94-8.49c-3.36-3.78-9.72-4.06-13.41-0.59
				c-4.03,3.65-3.09,9.94-1.66,14.56c3.45,2.13,7.66,4.66,7.6,9.31c0.81,3.65-3.88,6.55-1.89,10c3.75,8.39,8.88,16.15,15.09,22.92
				c5.28,5.81,11.62,10.47,17.73,15.35c-0.87,1.77-1.74,3.55-2.62,5.33c-8.12-5.25-15.61-11.53-21.86-18.92
				c-6.28-7.14-10.85-15.54-15.06-24c-3.55-1.36-8.12-2.28-9.31-6.52c-2.11-4.47,0.51-9.07,3.68-12.2
				c-1.9-12.24-0.76-24.92-4.57-36.85c-7.37-26.2-34.08-45.03-61.09-44.25c-13.88,0.61-27.23,6.57-37.82,15.43
				c-13.59,11.45-21.91,28.95-21.98,46.75c-0.53,27.1,18.96,53.49,45.26,60.41c17.07,4.34,36.15,2.01,50.8-8.1
				c5.39-3.32,9.8-9.28,16.7-9.2c9.47-0.76,17.6,8.7,16.13,17.92c-0.52,5.63-4.72,9.83-8.95,13.11
				c-13.33,11.03-30.08,17.38-47.06,19.96c-18.18,2.66-37.04-1.14-53.1-9.97c-16.15-8.73-30.67-21.21-39.7-37.38
				c-9.55-16.78-12.6-36.61-11.16-55.69c1.07-16.25,7.12-32.04,16.79-45.1c10.37-14.08,24.11-26.01,40.39-32.68
				c18.89-7.84,40.27-8.26,60-3.53C248.69,59.14,264.2,68.32,275.73,81.19z M416.12,173.41c-0.13,4.1,5.25,6.52,8.31,3.92
				c2.96-2.14,2.5-7.36-0.98-8.7C420.18,166.88,415.85,169.73,416.12,173.41z M309.11,188.4c-0.66,3.75,3.64,7.03,7.09,5.4
				c3.64-1.37,4.26-6.86,0.99-8.99C314.21,182.47,309.45,184.68,309.11,188.4z M383.45,211.29c0.02,0.73,0.03,1.46,0.04,2.2
				c7.03,0.77,13.76,3.19,20.73,4.26c2.29-3.13,5.32-5.35,8.94-6.7c1.6-7.16,2.03-14.54,3.14-21.79
				C407.68,199.39,396.45,207.85,383.45,211.29z M321.76,228.38c-0.46,3.58,3.29,6.8,6.75,5.55c4.31-1.23,4.84-8.09,0.74-9.93
				C326.09,222.34,321.72,224.72,321.76,228.38z"/>
		</g>
	</g>
</g>
</svg>
