<?xml version="1.0" encoding="utf-8"?>
<!-- Generator: Adobe Illustrator 26.0.1, SVG Export Plug-In . SVG Version: 6.00 Build 0)  -->
<svg version="1.1" id="Layer_1" xmlns="http://www.w3.org/2000/svg" xmlns:xlink="http://www.w3.org/1999/xlink" x="0px" y="0px"
	 viewBox="0 0 576 288.73" style="enable-background:new 0 0 576 288.73;" xml:space="preserve">
<style type="text/css">
	.st0{fill:#F89B03;}
	.st1{fill:#191AE8;}
</style>
<g>
	<g>
		<g>
			<path class="st0" d="M211.77,52.33c1.8-4.59,7.39-7.69,12.13-5.65c2.95,0.73,4.35,3.56,5.86,5.89c0.9,1.91,3.36,1.76,5.08,2.42
				c13.48,2.93,25.97,9.36,36.91,17.68c3.38-0.69,7.33-1.69,10.36,0.57c4.71,2.93,5.62,10.14,1.75,14.14
				c-3.92,4.43-12.23,3.56-15.09-1.66c-1.18-2.65-1.05-5.61-1.25-8.42c-6.91-5.28-14.44-9.8-22.61-12.83
				c-5.52-1.96-11.17-4.17-17.14-3.87c2.75,5.35,6.39,10.26,10.28,14.83c3.2,1.26,6.6,2.24,9.13,4.72
				c5.46,0.14,10.87-0.63,16.28-1.31c0.32,2.05,0.66,4.09,0.98,6.15c-5.25,0.89-10.57,1.31-15.83,2.09
				c8.92,6.71,17.87,14.1,23.08,24.2c-0.43,0.72-1.28,2.15-1.7,2.86c-1.45-0.29-3.37,0.17-4.22-1.36
				c-5.4-7.43-11.61-14.77-19.85-19.1c-3.43,0.66-6.99,2.39-10.49,1.01c-4.27-2.06-6.5-7.42-4.78-11.89
				c0.28-1.79,1.84-3.81,0.57-5.51c-2.75-4.29-6.01-8.23-9.03-12.33c-2.19-0.3-4.71-1.61-6.65,0.1c-3.79,2.89-6.42,7-9.97,10.15
				c-2.03-0.05-3.41-1.76-4.7-3.1c2.81-4.63,7.42-7.81,10.48-12.25C211.86,57.39,211.26,54.81,211.77,52.33z M216.7,52.36
				c-1.71,1.84-0.62,4.29-0.31,6.43c2.62,1.34,6.65,2.57,8.56-0.52c1.78-2.54,0.26-5.56-1.44-7.67
				C221.23,50.89,218,49.86,216.7,52.36z M236.43,80.62c-1.92,2.43-3.44,6.55-0.52,8.85c2.02,2.23,4.97,0.93,7.37,0.23
				c0.66-2.41,2.24-5.54-0.19-7.5C241.51,80.08,238.7,80.72,236.43,80.62z"/>
		</g>
		<g>
			<path class="st0" d="M164.8,66.41c12.79-8.1,27.68-12.91,42.8-13.73c0.01,1.98,0.03,3.96,0.03,5.95
				c-14.86,1.62-29.75,5.72-42.11,14.4c-0.22,2.53-0.11,5.23-1.33,7.55c-1.33,2.13-3.6,3.37-5.56,4.84
				c-0.09,6.47-0.13,12.95,0.04,19.42c7.84-8.18,15.96-16.46,26.49-21.14c-5.47-1.49-11.15-1.92-16.71-2.95
				c0.33-2.02,0.67-4.03,1.01-6.04c4.7,0.47,9.35,1.3,14.02,1.98c4.11,0.99,7.42-2.84,11.53-2.19c3.7-0.19,5.78,4.2,9.5,3.64
				c7.73-0.62,15.55-0.62,23.17,1c-0.74,1.84-0.91,4.07-2.41,5.5c-6.46,0.1-12.93-1.24-19.38-0.37c-3.69,1.16-3.81,6.18-7.15,7.91
				c-4,2.19-8.95,0.93-11.92-2.39c-5.37,3.74-10.53,7.77-15.76,11.7c-2.68,1.99-4.82,4.6-6.46,7.5c0.71,2.69,1.78,5.57,0.84,8.35
				c-1.36,3.89-5.49,6.3-9.5,6.27c-2.4-0.5-4.53-1.75-6.83-2.52c-4.9,2.78-9.54,6.01-14.19,9.18c-2.26,1.19-1.91,3.97-2.54,6.08
				c-0.67,3.15-3.66,4.91-5.92,6.87c-0.73,19.75,5.19,39.8,17.28,55.51c3.06,4.23,6.98,7.74,10.19,11.84
				c-0.64,1.98-1.95,3.63-3.04,5.38c-15.14-14.15-26.22-32.93-29.51-53.53c-1.41-6.66-0.84-13.51-1.78-20.22
				c-1.8-1.84-3.95-3.56-4.98-5.97c-0.34-2.89-0.66-6.34,1.63-8.55c1.98-2.63,6.44-2.74,7.11-6.35c3.39-11.86,9.1-23.03,16.88-32.61
				c2.02-2.86,4.9-5.21,6.32-8.44c0.29-3.86-0.33-8.47,3.1-11.17c2.96-3.25,7.57-2.49,11.36-1.48
				C162.42,68.21,163.6,66.91,164.8,66.41z M128.59,126.25c5.6-3.01,10.82-6.66,16.13-10.16c2.44-1.47,2.62-4.62,4.18-6.8
				c1.25-2.2,3.63-4.05,3.36-6.84c0.03-6.16,0.07-12.32-0.1-18.48C140.49,95.42,132.49,110.42,128.59,126.25z M152.07,111.46
				c-1.66,2.53,0.04,5.36,1.51,7.5c1.93,0.04,3.86,0.06,5.8,0.05c0.95-1.72,2.64-3.37,2.2-5.51c-0.13-2.14-2.14-3.4-3.37-4.91
				C156.08,109.2,153.17,109.13,152.07,111.46z M119.24,130.63c-3,4,2.26,10,6.58,7.44c3.05-1.08,2.74-4.7,2.84-7.3
				C126.16,128.47,121.28,127.09,119.24,130.63z"/>
		</g>
	</g>
	<g>
		<g>
			<path class="st1" d="M344.69,55.11c19.73-4.73,41.11-4.31,60,3.53c16.28,6.67,30.02,18.6,40.39,32.68
				c9.67,13.06,15.72,28.85,16.79,45.1c1.44,19.08-1.61,38.91-11.16,55.69c-9.03,16.17-23.55,28.65-39.7,37.38
				c-16.06,8.83-34.92,12.63-53.1,9.97c-16.98-2.58-33.73-8.93-47.06-19.96c-4.23-3.28-8.43-7.48-8.95-13.11
				c-1.47-9.22,6.66-18.68,16.13-17.92c6.9-0.08,11.31,5.88,16.7,9.2c14.65,10.11,33.73,12.44,50.8,8.1
				c26.3-6.92,45.79-33.31,45.26-60.41c-0.07-17.8-8.39-35.3-21.98-46.75c-10.59-8.86-23.94-14.82-37.82-15.43
				c-27.01-0.78-53.72,18.05-61.09,44.25c-3.81,11.93-2.67,24.61-4.57,36.85c3.17,3.13,5.79,7.73,3.68,12.2
				c-1.19,4.24-5.76,5.16-9.31,6.52c-4.21,8.46-8.78,16.86-15.06,24c-6.25,7.39-13.74,13.67-21.86,18.92
				c-0.88-1.78-1.75-3.56-2.62-5.33c6.11-4.88,12.45-9.54,17.73-15.35c6.21-6.77,11.34-14.53,15.09-22.92
				c1.99-3.45-2.7-6.35-1.89-10c-0.06-4.65,4.15-7.18,7.6-9.31c1.43-4.62,2.37-10.91-1.66-14.56c-3.69-3.47-10.05-3.19-13.41,0.59
				c-2.32,2.2-2.41,5.55-2.94,8.49c-1.46,9.33-4.97,18.24-9.71,26.39c5.46-2.76,10.96-5.4,16.45-8.06c0.93,1.86,1.85,3.73,2.77,5.6
				c-5.38,2.71-10.85,5.25-16.22,7.98c-2.88,1.44-3.53,4.98-5.97,6.91c-3.7,2.91-4.35,7.87-6.23,11.91
				c-1.57,4.37-3.74,8.55-4.8,13.09c0.56,3.04,2.45,5.9,1.83,9.12c-0.56,4.98-5.89,9.16-10.86,7.71c-2.69-0.57-5.2-2.89-8.01-1.61
				c-23.42,6.79-49.74,4.48-70.99-7.74c-2.33,0.61-4.47,2.38-6.99,1.97c-4.61-1.12-8.81-5.48-8.28-10.47
				c0.11-3.33,3.61-5.65,3.05-9.05c-1.22-9.28-2.14-18.61-3.76-27.82c-1.57-2.12-4.31-3.12-5.67-5.43c-1.74-2.84-0.65-6.59-2.65-9.3
				c-5.36-7.61-10.8-15.16-16.24-22.71c1.7-1.25,3.42-2.48,5.13-3.7c4.15,5.67,8.35,11.32,12.4,17.07
				c-1.44-11.54-0.99-23.4,2.67-34.5c1.81,0.75,3.62,1.51,5.44,2.27c-2.25,11.83-4.29,24.45,0.1,36.05
				c3.16,1.28,7.22,1.55,8.97,4.98c2.78,3.91,1.36,8.92-1.39,12.41c8.11,12.24,20.65,21.52,34.83,25.42
				c3.71,1.32,5.7-3.58,9.31-3.63c4.58-1.06,7.87,2.57,10.58,5.61c12.39,0.17,24.4-5.03,34.35-12.2c1.46,1.54,2.93,3.08,4.39,4.63
				c-11.02,8.5-24.53,13.45-38.36,14.66c7.06,2.28,14.11,4.57,21.17,6.87c-0.57,2.02-1.16,4.04-1.73,6.07
				c-7.25-2.29-14.45-4.78-21.71-7.03c-3.67-1.32-7.72,0.92-11.28-0.9c-3.72-1.59-4.55-6.1-7.76-8.29c-0.68,0.45-1.34,0.91-2,1.39
				c1.01,1.82,1.86,3.74,2.66,5.68c-7.45,1.81-14.97,3.35-22.4,5.28c6.51,2.74,12.98,5.71,19.86,7.46
				c11.82,3.11,24.33,3.09,36.3,0.79c3.22-0.68,6.57-1.11,9.53-2.65c1.57-3.08,1.57-7.31,5.08-9.04c2.17-1.61,6.12-0.62,7.03-3.65
				c2.48-6.3,4.96-12.61,7.4-18.92c-2.34-1.81-5.05-3.74-5.66-6.84c-1.29-4.81,1.89-10.65,7.05-11.23c2.01-0.52,4.89,0.32,5.99-1.97
				c6.45-10.35,9.09-22.7,9.1-34.8c0.28-22.97,10.04-45.24,25.41-62.12C312.39,68.32,327.9,59.14,344.69,55.11z M153.14,168.63
				c-3.48,1.34-3.94,6.56-0.98,8.7c3.06,2.6,8.44,0.18,8.31-3.92C160.74,169.73,156.41,166.88,153.14,168.63z M259.4,184.81
				c-3.27,2.13-2.65,7.62,0.99,8.99c3.45,1.63,7.75-1.65,7.09-5.4C267.14,184.68,262.38,182.47,259.4,184.81z M160.29,189.26
				c1.11,7.25,1.54,14.63,3.14,21.79c3.62,1.35,6.65,3.57,8.94,6.7c6.97-1.07,13.7-3.49,20.73-4.26c0.01-0.74,0.02-1.47,0.04-2.2
				C180.14,207.85,168.91,199.39,160.29,189.26z M247.34,224c-4.1,1.84-3.57,8.7,0.74,9.93c3.46,1.25,7.21-1.97,6.75-5.55
				C254.87,224.72,250.5,222.34,247.34,224z"/>
		</g>
	</g>
</g>
</svg>
